<mxfile host="Electron" modified="2023-05-03T07:42:04.624Z" agent="Mozilla/5.0 (Windows NT 10.0; Win64; x64) AppleWebKit/537.36 (KHTML, like Gecko) draw.io/21.2.1 Chrome/112.0.5615.87 Electron/24.1.2 Safari/537.36" etag="ASlVmbru8bBL6GqyEQ0j" version="21.2.1" type="device">
  <diagram name="第 1 页" id="indisLRFP4kBTXNJLHcs">
    <mxGraphModel dx="898" dy="579" grid="1" gridSize="10" guides="1" tooltips="1" connect="1" arrows="1" fold="1" page="1" pageScale="1" pageWidth="827" pageHeight="1169" math="0" shadow="0">
      <root>
        <mxCell id="0" />
        <mxCell id="1" parent="0" />
        <mxCell id="TZQG_eTM_Jlkd09ifVAf-1" value="&lt;font color=&quot;#ffffff&quot; style=&quot;font-size: 18px;&quot;&gt;&lt;b&gt;Working&lt;br&gt;Directory&lt;/b&gt;&lt;/font&gt;" style="rounded=0;whiteSpace=wrap;html=1;fillColor=#ff5a26;shadow=1;strokeColor=none;" vertex="1" parent="1">
          <mxGeometry x="170" y="140" width="170" height="60" as="geometry" />
        </mxCell>
        <mxCell id="TZQG_eTM_Jlkd09ifVAf-2" value="&lt;font color=&quot;#ffffff&quot;&gt;&lt;span style=&quot;font-size: 18px;&quot;&gt;&lt;b&gt;Staging&lt;br&gt;&lt;/b&gt;&lt;/span&gt;&lt;/font&gt;&lt;b&gt;&lt;font color=&quot;#ffffff&quot; style=&quot;font-size: 18px;&quot;&gt;Area&lt;/font&gt;&lt;/b&gt;" style="rounded=0;whiteSpace=wrap;html=1;fillColor=#0083a0;shadow=1;strokeColor=none;" vertex="1" parent="1">
          <mxGeometry x="380" y="140" width="170" height="60" as="geometry" />
        </mxCell>
        <mxCell id="TZQG_eTM_Jlkd09ifVAf-3" value="&lt;font color=&quot;#ffffff&quot;&gt;&lt;span style=&quot;font-size: 18px;&quot;&gt;&lt;b&gt;.git directory&lt;br&gt;(Repository)&lt;br&gt;&lt;/b&gt;&lt;/span&gt;&lt;/font&gt;" style="rounded=0;whiteSpace=wrap;html=1;fillColor=#f8cecc;shadow=1;strokeColor=none;" vertex="1" parent="1">
          <mxGeometry x="590" y="140" width="170" height="60" as="geometry" />
        </mxCell>
        <mxCell id="TZQG_eTM_Jlkd09ifVAf-4" value="" style="endArrow=none;html=1;rounded=0;entryX=0.5;entryY=1;entryDx=0;entryDy=0;strokeWidth=2;" edge="1" parent="1" target="TZQG_eTM_Jlkd09ifVAf-1">
          <mxGeometry width="50" height="50" relative="1" as="geometry">
            <mxPoint x="255" y="400" as="sourcePoint" />
            <mxPoint x="420" y="260" as="targetPoint" />
          </mxGeometry>
        </mxCell>
        <mxCell id="TZQG_eTM_Jlkd09ifVAf-5" value="" style="endArrow=none;html=1;rounded=0;entryX=0.5;entryY=1;entryDx=0;entryDy=0;strokeWidth=2;" edge="1" parent="1">
          <mxGeometry width="50" height="50" relative="1" as="geometry">
            <mxPoint x="464.5" y="400" as="sourcePoint" />
            <mxPoint x="464.5" y="200" as="targetPoint" />
          </mxGeometry>
        </mxCell>
        <mxCell id="TZQG_eTM_Jlkd09ifVAf-6" value="" style="endArrow=none;html=1;rounded=0;entryX=0.5;entryY=1;entryDx=0;entryDy=0;strokeWidth=2;" edge="1" parent="1">
          <mxGeometry width="50" height="50" relative="1" as="geometry">
            <mxPoint x="680" y="400" as="sourcePoint" />
            <mxPoint x="680" y="200" as="targetPoint" />
          </mxGeometry>
        </mxCell>
        <mxCell id="TZQG_eTM_Jlkd09ifVAf-7" value="" style="shape=flexArrow;endArrow=classic;html=1;rounded=0;width=36;endSize=30.03;strokeColor=none;fillColor=#918881;endWidth=17;" edge="1" parent="1">
          <mxGeometry width="50" height="50" relative="1" as="geometry">
            <mxPoint x="255" y="260" as="sourcePoint" />
            <mxPoint x="461" y="260" as="targetPoint" />
          </mxGeometry>
        </mxCell>
        <mxCell id="TZQG_eTM_Jlkd09ifVAf-12" value="&lt;b&gt;&lt;font color=&quot;#ffffff&quot; style=&quot;font-size: 18px;&quot;&gt;Stage Fixes&lt;/font&gt;&lt;/b&gt;" style="edgeLabel;html=1;align=center;verticalAlign=middle;resizable=0;points=[];labelBackgroundColor=none;" vertex="1" connectable="0" parent="TZQG_eTM_Jlkd09ifVAf-7">
          <mxGeometry x="-0.143" y="3" relative="1" as="geometry">
            <mxPoint x="-29" y="3" as="offset" />
          </mxGeometry>
        </mxCell>
        <mxCell id="TZQG_eTM_Jlkd09ifVAf-13" value="&lt;font style=&quot;font-size: 16px;&quot;&gt;暂存修改&lt;/font&gt;" style="text;html=1;strokeColor=none;fillColor=none;align=center;verticalAlign=middle;whiteSpace=wrap;rounded=0;" vertex="1" parent="1">
          <mxGeometry x="260" y="280" width="90" height="30" as="geometry" />
        </mxCell>
        <mxCell id="TZQG_eTM_Jlkd09ifVAf-14" value="" style="shape=flexArrow;endArrow=classic;html=1;rounded=0;width=36;endSize=30.03;strokeColor=none;fillColor=#918881;endWidth=17;" edge="1" parent="1">
          <mxGeometry width="50" height="50" relative="1" as="geometry">
            <mxPoint x="464" y="330" as="sourcePoint" />
            <mxPoint x="680" y="330" as="targetPoint" />
          </mxGeometry>
        </mxCell>
        <mxCell id="TZQG_eTM_Jlkd09ifVAf-15" value="&lt;b&gt;&lt;font color=&quot;#ffffff&quot; style=&quot;font-size: 18px;&quot;&gt;Commit&lt;br&gt;&lt;/font&gt;&lt;/b&gt;" style="edgeLabel;html=1;align=center;verticalAlign=middle;resizable=0;points=[];labelBackgroundColor=none;" vertex="1" connectable="0" parent="TZQG_eTM_Jlkd09ifVAf-14">
          <mxGeometry x="-0.143" y="3" relative="1" as="geometry">
            <mxPoint x="-29" y="3" as="offset" />
          </mxGeometry>
        </mxCell>
        <mxCell id="TZQG_eTM_Jlkd09ifVAf-16" value="&lt;font style=&quot;font-size: 16px;&quot;&gt;提交更新&lt;/font&gt;" style="text;html=1;strokeColor=none;fillColor=none;align=center;verticalAlign=middle;whiteSpace=wrap;rounded=0;" vertex="1" parent="1">
          <mxGeometry x="476" y="350" width="90" height="30" as="geometry" />
        </mxCell>
      </root>
    </mxGraphModel>
  </diagram>
</mxfile>
